# xmcd
#
# Track frame offsets:
#	150
#	17601
#	40628
#	63882
#	97744
#	117914
#	140909
#	168175
#	192761
#	212350
#
# Disc length: 3055 seconds
#
# Revision: 2
# Processed by: cddbd v1.5.2PL0 Copyright (c) Steve Scherf et al.
# Submitted via: EZCDAudioConverter 8.0.2.1
#
DISCID=770bed0a
DTITLE=Chế Linh - Giọng Ca Dĩ Vãng 2
DYEAR=2011
DGENRE=Miscellaneous
TTITLE0=Em có về
TTITLE1=Mười năm tình cũ
TTITLE2=Giọng Ca Dĩ Vãng 2 (Đàn xưa ngóng đợi)
TTITLE3=Lỡ chuyến đò tình
TTITLE4=Em còn nhớ mùa xuân
TTITLE5=Hai vì sao lạc
TTITLE6=Lời cuối cho em
TTITLE7=Nhắn cánh chim chiều
TTITLE8=Ru em vào mộng
TTITLE9=Còn nhớ không em
EXTD=
EXTT0=
EXTT1=
EXTT2=
EXTT3=
EXTT4=
EXTT5=
EXTT6=
EXTT7=
EXTT8=
EXTT9=
PLAYORDER=
